M48
; DRILL file {KiCad 9.0.0} date 2025-04-09T14:48:19+0530
; FORMAT={-:-/ absolute / metric / decimal}
; #@! TF.CreationDate,2025-04-09T14:48:19+05:30
; #@! TF.GenerationSoftware,Kicad,Pcbnew,9.0.0
; #@! TF.FileFunction,Plated,1,2,PTH
FMAT,2
METRIC
; #@! TA.AperFunction,Plated,PTH,ComponentDrill
T1C1.000
; #@! TA.AperFunction,Plated,PTH,ComponentDrill
T2C1.500
; #@! TA.AperFunction,Plated,PTH,ComponentDrill
T3C3.500
%
G90
G05
T1
X55.495Y-42.94
X55.495Y-46.94
X55.495Y-53.94
X55.495Y-57.94
X66.875Y-106.985
X69.415Y-106.985
X71.955Y-106.985
X74.495Y-106.985
X78.145Y-163.335
X80.685Y-163.335
X83.225Y-163.335
X85.765Y-163.335
X87.285Y-115.075
X88.305Y-163.335
X89.825Y-115.075
X90.845Y-163.335
X92.365Y-115.075
X93.385Y-163.335
X94.905Y-115.075
X95.925Y-163.335
X97.445Y-115.075
X98.465Y-163.335
X99.985Y-115.075
X101.005Y-163.335
X102.525Y-115.075
X105.065Y-115.075
X105.065Y-163.335
X107.605Y-163.335
X110.145Y-115.075
X110.145Y-163.335
X112.685Y-115.075
X112.685Y-163.335
X115.225Y-115.075
X115.225Y-163.335
X117.495Y-106.985
X117.765Y-115.075
X117.765Y-163.335
X120.035Y-106.985
X120.305Y-115.075
X120.305Y-163.335
X122.575Y-106.985
X122.845Y-115.075
X122.845Y-163.335
X125.915Y-28.94
X128.455Y-28.94
X130.995Y-28.94
X133.535Y-28.94
X136.075Y-28.94
X138.615Y-28.94
X141.155Y-28.94
X143.695Y-28.94
X146.235Y-28.94
X148.775Y-28.94
X151.315Y-28.94
X153.855Y-28.94
X156.395Y-28.94
X158.935Y-28.94
X161.475Y-28.94
X164.015Y-28.94
T2
X143.68Y-75.02
X143.68Y-90.64
X143.68Y-106.26
X144.68Y-122.38
X144.68Y-138.0
X148.68Y-74.52
X148.68Y-90.14
X148.68Y-105.76
X149.68Y-121.88
X149.68Y-137.5
X162.5Y-75.02
X162.5Y-90.64
X162.5Y-106.26
X162.5Y-121.88
X162.5Y-137.5
X167.5Y-74.52
X167.5Y-90.14
X167.5Y-105.76
X167.5Y-121.38
X167.5Y-137.0
T3
X56.495Y-29.94
X56.495Y-66.94
X171.495Y-29.94
X171.495Y-66.94
M30
